# xmcd CD database file
#
# Track frame offsets:
#	150
#	15566
#	33697
#	46892
#	61371
#	77115
#	93276
#	108222
#	124822
#	143804
#	161260
#	179566
#	196465
#	214174
#	231050
#	249384
#	270004
#	288180
#
# Disc length: 4132 seconds
#
# Revision: 4
# Processed by: cddbd v1.5.2PL0 Copyright (c) Steve Scherf et al.
# Submitted via: CDex 1.70beta2
#
DISCID=ef102212
DTITLE=Various Artist - Quelques mots d'amour
DYEAR=2002
DGENRE=Folk
TTITLE0=Natasha st pier - Tu trouveras
TTITLE1=Marc Lavoine - J'ai tout oublié
TTITLE2=Daho and Dani - Comme un Boomerang
TTITLE3=Tina arena - Tu es toujours là
TTITLE4=Garou et Céline Dion  Sous le vent
TTITLE5=Clemence et Johnny - On a tous besoin d'amour
TTITLE6=Patricia Kaas  Un homme et une femme
TTITLE7=Julien Clerc et Assia  Quelques mots en ton nom
TTITLE8=Pascal obispo - L'important c'est d'aimer
TTITLE9=Henri salvador - Mademoiselle
TTITLE10=Alain souchon - Le baiser
TTITLE11=Jean louis aubert - Alter ego
TTITLE12=Dany brillant - Tant qu il y aura des femmes
TTITLE13=Isabelle boulay - Quelques pleurs
TTITLE14=Eve angeli - Je sais
TTITLE15=Lavoie - Belle
TTITLE16=Axelle Red - Parce que c'est toi
TTITLE17=Julilen Clerc - Si j'etais elle
EXTD=YEAR: 2002
EXTT0=
EXTT1=
EXTT2=
EXTT3=
EXTT4=
EXTT5=
EXTT6=
EXTT7=
EXTT8=
EXTT9=
EXTT10=
EXTT11=
EXTT12=
EXTT13=
EXTT14=
EXTT15=
EXTT16=
EXTT17=
PLAYORDER=
